<svg xmlns="http://www.w3.org/2000/svg" xmlns:xlink="http://www.w3.org/1999/xlink" viewBox="0 0 660.6 162"><defs><linearGradient id="a" x1="-6.27" y1="115.86" x2="119.24" y2="43.39" gradientUnits="userSpaceOnUse"><stop offset="0.13" stop-color="#fc6f06"/><stop offset="0.33" stop-color="#d55632"/><stop offset="0.78" stop-color="#7216a0"/><stop offset="0.92" stop-color="#5202c4"/></linearGradient><linearGradient id="b" x1="-3.28" y1="94.86" x2="16.73" y2="83.3" xlink:href="#a"/><linearGradient id="c" x1="58.33" y1="119.44" x2="125.59" y2="80.6" xlink:href="#a"/><linearGradient id="d" x1="-3.18" y1="94.48" x2="44.66" y2="66.86" xlink:href="#a"/><linearGradient id="e" x1="25.44" y1="119.04" x2="118.71" y2="65.19" xlink:href="#a"/><linearGradient id="f" x1="80.7" y1="134.28" x2="105.01" y2="120.24" xlink:href="#a"/></defs><title>logotype</title><path d="M660.6,20.7l-7.3,7.9-.7-1a18.3,18.3,0,0,0-8.6-6.4A16.2,16.2,0,0,0,625.5,27a30.7,30.7,0,0,0-5.3,10.9,60.6,60.6,0,0,0-2.4,12.7,85.7,85.7,0,0,0-.1,12.4,59.1,59.1,0,0,0,4.1,19.5,27.2,27.2,0,0,0,6.1,8.9,15.7,15.7,0,0,0,21.7-.3,18.9,18.9,0,0,0,3.2-3.7l.5-.8,7,7.7c-.1.2-.1.3-.2.4-4.3,6.4-10.2,10.5-17.9,11.5-10.8,1.4-19.7-2.2-26.5-10.8a44.8,44.8,0,0,1-7.6-15.3,65.9,65.9,0,0,1-2.7-14.6,81.9,81.9,0,0,1-.2-13.1c.6-8.3,2.1-16.3,5.7-23.8A36.3,36.3,0,0,1,620,16.1a26.8,26.8,0,0,1,19.1-6.6,27.9,27.9,0,0,1,13.2,3.4,24.6,24.6,0,0,1,8.2,7.5c0,.1,0,.1.1.1Z" style="fill:#5202c4"/><path d="M358.6,104.3H347.7V11.7H365c.4,1.3.7,2.7,1.1,4.1,6.1,22.8,12.3,45.6,18.4,68.4.1.4,0,.9.7,1,1-3.5,1.9-7,2.8-10.4s1.9-7.1,2.8-10.6,1.8-7,2.8-10.5l2.7-10.5c1-3.5,1.9-7,2.8-10.5s1.8-7,2.8-10.6l2.7-10.5h18.1V104a.4.4,0,0,1-.1.3H411.1V28.7a1.5,1.5,0,0,0-.3-1.2c-.8,2.4-1.3,4.8-2,7.1L407,41.5c-.7,2.3-1.3,4.7-1.9,7s-1.3,4.7-1.9,7-1.3,4.6-1.9,6.9-1.3,4.7-1.9,7-1.2,4.7-1.9,7l-1.8,7c-.7,2.3-1.3,4.7-1.9,7s-1.3,4.6-1.9,6.9l-1.9,7H379.4c-6.9-25.5-13.6-51.1-20.5-76.7h-.2c0,.1-.1.3-.1.4v76.2Z" style="fill:#5202c4"/><path d="M547.4,63.6H535.3V53.4h23.4c0,.4.1.7.1,1.1V97.6a1.7,1.7,0,0,1-.8,1.6,31.2,31.2,0,0,1-15,6.3,37.7,37.7,0,0,1-10.6.4,29,29,0,0,1-16.6-7.6,38.3,38.3,0,0,1-8.6-12.5A58.3,58.3,0,0,1,503,70.6a88,88,0,0,1-.8-18.5,67.5,67.5,0,0,1,5.1-22.5,39,39,0,0,1,7.2-11.2,26.4,26.4,0,0,1,16-8.6,30.2,30.2,0,0,1,17.3,2.3,24.8,24.8,0,0,1,9.5,8.1l.3.4-7.3,8-1-1.3a16.5,16.5,0,0,0-9.3-6.4c-6.9-1.8-12.7.1-17.3,5.7a31.5,31.5,0,0,0-5.3,10.5,56.5,56.5,0,0,0-2.5,13.4,75.8,75.8,0,0,0-.2,12.6,55.5,55.5,0,0,0,4,18.8,25,25,0,0,0,6,9,16.3,16.3,0,0,0,11.9,4.5,20,20,0,0,0,7.3-1.2l2.8-1.4a1.4,1.4,0,0,0,.7-1.3V63.6Z" style="fill:#5202c4"/><path d="M478.1,82.7H451.2c-1.7,7.2-3.5,14.4-5.3,21.6h-12c7.8-30.9,15.6-61.7,23.3-92.6h15.7c7.6,30.8,15.1,61.7,22.7,92.6H483.3C481.6,97.1,479.8,89.9,478.1,82.7Zm-1.7-9.5c0-.3-.1-.6-.1-.9-.5-2.3-1.1-4.6-1.6-6.9-2.7-11.8-5.3-23.7-8-35.6-.5-2.1-.9-4.2-1.4-6.2-.1-.3,0-.8-.7-1-3.9,16.9-7.8,33.7-11.8,50.6Z" style="fill:#5202c4"/><path d="M179.1,55.9l.5.3c6.2,1.5,10.5,5.4,13.3,11.1a27.1,27.1,0,0,1,2.5,12.9,29.2,29.2,0,0,1-2,10.9c-2.8,6.8-7.9,10.9-14.9,12.9a29.8,29.8,0,0,1-7.3.9H147.7V12.3h20.8a29.1,29.1,0,0,1,10.9,1.9,19.3,19.3,0,0,1,12.3,14.7,28.6,28.6,0,0,1-.8,14.8A18.1,18.1,0,0,1,180,55.5ZM156.3,97.1h12.8l3.9-.4c6.5-1.1,10.7-4.8,12.5-11.1a23.8,23.8,0,0,0,.7-9.9,19.8,19.8,0,0,0-2-6.8c-3.2-5.8-8.2-8.6-14.7-8.8-4.1-.2-8.3,0-12.5,0h-.7Zm0-44.3H168a16.4,16.4,0,0,0,3.8-.4c5.6-1.3,9.5-4.7,11.1-10.3a21.5,21.5,0,0,0-.1-12.3,12.6,12.6,0,0,0-7-8.1,15.7,15.7,0,0,0-6.7-1.6c-4.1-.1-8.1,0-12.1,0h-.7Z" style="fill:#fc6f06"/><path d="M268.5,58.5a85.6,85.6,0,0,1-2.3,20.8,50.5,50.5,0,0,1-6.5,15.5,33.5,33.5,0,0,1-5.8,6.6,24.3,24.3,0,0,1-16.7,5.7c-7.9-.3-14.1-3.8-19-9.8a38.7,38.7,0,0,1-6.9-12.8,69.3,69.3,0,0,1-3.3-15,99.2,99.2,0,0,1-.6-15.4c.4-8,1.5-15.8,4.4-23.3a38.3,38.3,0,0,1,7.1-12.2,24.3,24.3,0,0,1,15.8-8.3,24.8,24.8,0,0,1,22.7,9A41.4,41.4,0,0,1,264.8,33a71.1,71.1,0,0,1,3.1,14.4A103.2,103.2,0,0,1,268.5,58.5Zm-9.5.1a86.6,86.6,0,0,0-1.2-14.4A51.2,51.2,0,0,0,254.5,32a28.2,28.2,0,0,0-6-9.2,15.3,15.3,0,0,0-19.8-1.2,22.2,22.2,0,0,0-5.1,5.9,44.8,44.8,0,0,0-5.2,14.6A68.7,68.7,0,0,0,217,54.9a84.6,84.6,0,0,0,1.8,21.9A44.9,44.9,0,0,0,223,88.6a25.3,25.3,0,0,0,5.4,6.7,15,15,0,0,0,19.2-.2,18,18,0,0,0,4.7-5.6,42.6,42.6,0,0,0,4.6-12A86.2,86.2,0,0,0,259,58.6Z" style="fill:#fc6f06"/><path d="M328.5,12.3l-.4,1.1c-6.7,14-13.3,28-20,41.9a2.1,2.1,0,0,0,0,1.9q11.3,23.3,22.4,46.6a5.8,5.8,0,0,1,.5,1.1h-9.9l-18.7-41-18.7,41h-9.5a1.2,1.2,0,0,1,.3-1l9.2-19.1c4.4-9.3,8.9-18.6,13.4-27.9a2.2,2.2,0,0,0,0-1.6q-10.2-20.8-20.2-41.9a3.6,3.6,0,0,1-.4-.9c.7-.3,7.6-.3,9.6-.1l16.6,36.4c1.5-3.1,2.8-6.2,4.1-9.2s2.8-6.1,4.1-9.1,2.7-6,4.1-9.1,2.7-6,4.1-9.1Z" style="fill:#fc6f06"/><path d="M588.7,104.3H576.9V12a.4.4,0,0,1,.1-.3h11.7Z" style="fill:#5202c4"/><path d="M159.7,136H165v25.7h-3.8v-15H161c-1.1,5-2.1,10-3.2,15.1h-3.2c-1.1-5.1-2.3-10.2-3.5-15.3h-.2v15.2H147V136h5.6c1.2,5.9,2.3,11.8,3.5,17.8h.2C157.4,147.9,158.6,142,159.7,136Z" style="fill:#fc6f06"/><path d="M660,136v25.8h-3.9V146.7h-.2c-1,5-2.1,10-3.2,15h-3.1L646,146.5h-.2v15.3h-3.9V136h5.6c1.2,5.9,2.4,11.8,3.5,17.8h.3l3.3-17.8Z" style="fill:#fc6f06"/><path d="M409.4,161.8h-4.1L400.2,146H400v15.7h-3.9V136h4.4c1.6,5.5,3.2,11,4.9,16.5h.2V136h3.7C409.6,136.6,409.6,160.6,409.4,161.8Z" style="fill:#fc6f06"/><path d="M242.8,161.7V136h5.8a6.1,6.1,0,0,1,6.4,6.3v13.1a6.3,6.3,0,0,1-2.5,5.2,5.4,5.4,0,0,1-3.4,1.2h-6.3Zm3.9-3.8h2.5a2.3,2.3,0,0,0,1.9-1.8V141.8a2,2,0,0,0-1.4-1.7,7.5,7.5,0,0,0-3-.1Z" style="fill:#fc6f06"/><path d="M210.9,161.8h-4.1c-.3-2-.6-3.9-1-5.9h-4l-.9,5.9h-4.1c.4-2.9,1-5.7,1.4-8.6l1.5-8.6,1.5-8.6h5.4C208,144.6,209.4,153.1,210.9,161.8Zm-5.6-9.9c-.5-3.1-.9-6.1-1.5-9.1-.5,3-1,6-1.3,9.1Z" style="fill:#fc6f06"/><path d="M605.1,155.9h-4l-.9,5.9h-4.1c1.4-8.7,2.9-17.2,4.4-25.8h5.4c1.4,8.6,2.8,17.1,4.3,25.8h-4.1C605.8,159.8,605.5,157.9,605.1,155.9Zm-1.8-13.1h-.2c-.3,1.5-.5,3-.7,4.5a34,34,0,0,0-.6,4.6h2.8C604.1,148.8,603.7,145.8,603.3,142.8Z" style="fill:#fc6f06"/><path d="M523.6,161.7l-.9-5.8h-4c-.4,1.9-.7,3.8-1,5.8h-4.1c1.5-8.5,2.9-17.1,4.4-25.6a24.1,24.1,0,0,1,5.4,0c1.4,8.5,2.9,17,4.3,25.6Zm-1.5-9.8c-.5-3.1-.9-6.2-1.4-9.3h-.1c-.5,3.1-.9,6.2-1.3,9.3Z" style="fill:#fc6f06"/><path d="M296,146.9v3.9h-5.2v7h7.1c.1,1.4,0,2.6,0,3.8a99.9,99.9,0,0,1-11,.1V136h11v3.8h-7a39.8,39.8,0,0,0-.1,7.1H296Z" style="fill:#fc6f06"/><path d="M560,139.9h-4.1a24.1,24.1,0,0,1,0-3.8,114.2,114.2,0,0,1,11.9-.1,10,10,0,0,1,.1,3.9h-4v21.8H560Z" style="fill:#fc6f06"/><path d="M471.9,136h3.8v21.8h6.7c.1,1.3.1,2.6.1,3.9H472C471.8,161.1,471.7,137.3,471.9,136Z" style="fill:#fc6f06"/><path d="M364,161.8h-3.6c-.2-.7-.2-24.6,0-25.8H364C364.2,136.7,364.3,160.6,364,161.8Z" style="fill:#fc6f06"/><path d="M87.7,0l1.4.4a13.8,13.8,0,0,1,10.9,12,13.2,13.2,0,0,1-1.1,7.1L93.5,31.7,39.8,150.4a14.3,14.3,0,0,1-9.1,8.2A13.9,13.9,0,0,1,13,147.1a14.4,14.4,0,0,1,1.5-8.4c5-11,9.9-22.1,14.9-33.1Q51.3,57.5,73,9.3a15.6,15.6,0,0,1,4.2-6A15.1,15.1,0,0,1,84,.2l.7-.2Z" style="fill:url(#a)"/><path d="M66,162l-.7-.2a6.9,6.9,0,0,1-5.2-7.6,6.8,6.8,0,0,1,6.7-5.9,6.8,6.8,0,0,1,1.7,13.4l-.7.3Z" style="fill:#fc6f06"/><path d="M0,100.3c.5,0,.5-.4.6-.7L5.5,88.8l5.2-11.4.4-.9,2.3,1c-3.7,8.1-7.3,16-10.9,24.1L0,100.5Z" style="fill:url(#b)"/><path d="M76.1,142.7c-5.3,0-8.7-5-6.7-9.5,1-2.6,2.2-5,3.3-7.5,9.7-21.2,19.3-42.4,29-63.7a10.3,10.3,0,0,1,1.8-2.8,6.9,6.9,0,0,1,8.6-.6,6.6,6.6,0,0,1,2.4,8.1c-.9,2.4-2,4.7-3.1,7-9.7,21.5-19.5,42.9-29.2,64.3l-.8,1.5A6.5,6.5,0,0,1,76.1,142.7Z" style="fill:url(#c)"/><path d="M4.3,106a5.9,5.9,0,0,1,.7-2.5c3.3-7.3,6.6-14.6,10-21.9,4.2-9.4,8.5-18.7,12.7-28.1a6.5,6.5,0,0,1,1.6-2.1,4.9,4.9,0,0,1,7.5,5.7c-.8,1.8-1.7,3.6-2.5,5.5q-10.2,22.5-20.5,45a8.2,8.2,0,0,1-1.2,2,4.9,4.9,0,0,1-5.3,1.1A5.1,5.1,0,0,1,4.3,106Z" style="fill:url(#d)"/><path d="M98.2,32.5l2.3,1.1L46,151.7l-2.3-1C61.8,111.3,80,72,98.2,32.5Z" style="fill:url(#e)"/><path d="M98.5,111.8l2.3,1.1L87.2,142.7l-2.3-1.1Z" style="fill:url(#f)"/><path d="M38.6,36.6a5,5,0,0,1,4.8,4.9,4.9,4.9,0,0,1-9.7-.1A4.9,4.9,0,0,1,38.6,36.6Z" style="fill:#5202c4"/></svg>